<svg width="191" height="303" viewBox="0 0 191 303" fill="none" xmlns="http://www.w3.org/2000/svg">
<path d="M123.436 143.217L124.873 141.867C131.613 130.094 152.023 117.345 164.23 128.324C171.155 134.553 171.457 145.242 168.015 153.394C165.197 160.068 155.015 167.324 148.147 169.14C139.013 171.554 129.511 172.239 123.737 163.514C123.241 162.763 123.246 161.597 122.234 161.034C118.357 167.381 115.996 176.497 120.107 179.105C120.312 179.315 123.298 176.773 123.743 176.497C131.302 171.802 145.468 171.802 153.144 176.236C156.622 178.246 162.585 184.291 164.359 187.881C170.307 199.914 168.45 215.655 152.899 217.624C136.799 219.665 125.308 208.03 120.838 193.67C120.388 192.222 119.764 188.336 119.187 187.349C118.992 187.016 118.864 187.062 118.644 187.349C117.289 192.908 118.268 198.221 117.721 203.97C115.854 223.613 118.233 245.189 123.111 264.239C125.771 274.62 130.261 286.061 131.734 296.555C131.882 297.613 132.736 302.472 131.146 302.354C128.358 301.04 126.354 297.818 124.85 295.194C114.448 277.065 111.339 247.235 110.802 226.569L110.567 202.609C108.72 201.162 106.23 201.29 104.107 200.564C97.8579 198.421 98.0219 192.115 89.7219 192.693C83.9529 193.097 77.8109 195.547 71.8889 195.598C63.6959 195.669 57.1549 191.368 53.5339 184.163C50.9619 179.054 52.5219 174.712 45.8479 172.441C39.4859 170.278 34.9909 177.678 29.3959 175.08C23.3259 172.257 27.3349 163.926 19.7359 160.822C15.2499 158.991 3.42194 157.467 0.838939 153.407C-3.25206 146.963 8.75593 145.337 12.4069 143.531C17.1579 141.179 18.3549 135.272 22.7679 132.096C30.6029 126.45 37.4659 136.541 45.0809 137.338C53.4009 138.208 61.5529 133.958 70.0729 137.323C76.6909 139.936 79.7999 143.051 84.9139 147.464C87.0619 149.321 89.4659 150.492 91.6599 152.149C100.497 158.812 105.693 173.756 110.935 183.375C111.098 183.672 111.231 184.096 111.61 184.163C111.523 180.67 111.727 177.146 111.625 173.648C111.405 166.417 110.244 149.147 104.041 144.549C99.7909 141.399 91.9669 142.248 88.2439 138.816C86.3869 137.103 87.0419 134.28 86.2439 133.37C78.4599 128.614 70.5339 124.108 63.1639 118.708C53.9589 111.962 51.2739 107.626 47.6379 96.7584C45.5819 90.6164 44.8049 83.7334 42.3859 77.8214C40.2169 72.5234 34.7399 68.2634 36.5509 61.8704C37.6349 58.0454 40.1409 57.0634 43.9809 57.3494C48.6759 57.7024 53.8159 63.4664 56.0249 67.3684C57.0169 69.1224 57.5439 70.9784 58.6739 72.6914C63.6139 80.1994 70.2369 79.4214 77.9799 81.5594C92.5599 85.5844 93.7669 95.4804 99.3459 107.508C102.098 113.435 105.371 118.237 106.757 124.819C107.831 129.923 107.82 135.635 109.027 140.627C110.249 145.674 113.952 143.629 116.908 141.47C119.787 139.369 122.943 135.61 124.681 132.5C125.07 131.805 126.793 128.634 126.231 128.067C120.687 128.486 117.02 130.598 111.896 127.12C102.266 120.585 100.594 99.8574 103.657 89.6704C107.396 77.2284 122.462 68.4214 131.759 81.1964C137.211 88.6834 138.576 99.0904 137.922 108.132C138.244 108.577 141.814 100.691 142.028 100.149C143.338 96.8664 144.227 93.7264 144.56 90.1874C144.918 86.3464 144.053 77.0184 148.395 75.1464C149.531 74.6554 151.372 75.3054 151.863 74.3644C153.53 68.0784 152.972 60.3774 155.253 54.3634C158.097 46.8704 165.175 42.4574 165.814 34.3564C166.601 24.3684 162.597 12.5754 166.566 2.94141C167.732 0.11841 169.158 -1.1246 171.792 1.2634C176.022 5.0944 180.154 13.7674 182.701 19.0604C186.321 26.5834 190.295 36.0804 190.791 44.4624C192.371 71.0244 176.272 92.2074 156.22 107.441C148.298 113.461 147.095 115.411 136.004 126.031C128.34 133.37 124.325 138.312 123.43 143.222L123.436 143.217Z" fill="black" style="fill:black;fill-opacity:1;"/>
</svg>
