<svg width="349" height="552" viewBox="0 0 349 552" fill="none" xmlns="http://www.w3.org/2000/svg">
<path d="M225.285 261.389L227.908 258.925C240.21 237.439 277.462 214.17 299.741 234.209C312.379 245.578 312.93 265.086 306.648 279.964C301.505 292.144 282.922 305.389 270.387 308.703C253.716 313.108 236.374 314.359 225.836 298.435C224.931 297.063 224.94 294.935 223.092 293.909C216.017 305.492 211.707 322.13 219.211 326.89C219.584 327.273 225.035 322.634 225.847 322.13C239.642 313.561 265.497 313.561 279.507 321.654C285.854 325.322 296.737 336.355 299.976 342.907C310.832 364.869 307.443 393.599 279.059 397.192C249.676 400.917 228.703 379.682 220.545 353.473C219.724 350.831 218.585 343.738 217.531 341.936C217.176 341.33 216.943 341.414 216.541 341.936C214.068 352.082 215.855 361.78 214.856 372.271C211.449 408.122 215.789 447.502 224.694 482.27C229.547 501.218 237.742 522.098 240.431 541.251C240.701 543.183 242.26 552.05 239.357 551.835C234.27 549.436 230.611 543.556 227.867 538.768C208.882 505.679 203.207 451.235 202.227 413.517L201.798 369.788C198.428 367.147 193.883 367.38 190.009 366.055C178.603 362.144 178.902 350.635 163.753 351.69C153.225 352.427 142.015 356.898 131.206 356.992C116.253 357.122 104.315 349.273 97.7071 336.121C93.0122 326.797 95.859 318.872 83.6784 314.728C72.0671 310.78 63.8627 324.286 53.6515 319.544C42.5722 314.392 49.8899 299.187 36.0199 293.522C27.8341 290.18 6.24494 287.399 1.53136 279.988C-5.93571 268.227 15.9801 265.259 22.6445 261.964C31.3156 257.67 33.4997 246.89 41.5548 241.094C55.8542 230.789 68.3803 249.205 82.2783 250.661C97.4645 252.248 112.343 244.491 127.893 250.633C139.971 255.402 145.646 261.087 154.98 269.142C158.9 272.53 163.287 274.667 167.291 277.692C183.42 289.853 192.903 317.127 202.47 334.684C202.769 335.225 203.011 336 203.702 336.121C203.543 329.746 203.917 323.315 203.73 316.931C203.329 303.733 201.21 272.213 189.888 263.821C182.132 258.072 167.851 259.621 161.056 253.358C157.668 250.231 158.862 245.079 157.406 243.418C143.2 234.737 128.733 226.514 115.283 216.658C98.4818 204.346 93.5816 196.431 86.9452 176.597C83.193 165.387 81.7743 152.824 77.3594 142.034C73.4018 132.364 63.4053 124.589 66.7095 112.922C68.6883 105.94 73.2618 104.148 80.2715 104.67C88.84 105.314 98.2205 115.834 102.253 122.955C104.063 126.157 105.025 129.545 107.088 132.672C116.104 146.374 128.191 144.955 142.323 148.857C168.934 156.202 171.136 174.263 181.32 196.217C186.341 207.034 192.315 215.799 194.844 227.812C196.804 237.127 196.786 247.553 198.988 256.662C201.219 265.875 207.977 262.141 213.372 258.202C218.627 254.366 224.386 247.506 227.559 241.831C228.269 240.562 231.414 234.775 230.387 233.739C220.27 234.504 213.577 238.359 204.225 232.012C186.649 220.083 183.597 182.253 189.188 163.66C196.011 140.951 223.508 124.878 240.477 148.194C250.427 161.859 252.919 180.853 251.725 197.355C252.313 198.167 258.828 183.775 259.22 182.785C261.609 176.793 263.233 171.062 263.84 164.603C264.493 157.593 262.916 140.568 270.84 137.152C272.912 136.256 276.273 137.441 277.169 135.724C280.211 124.253 279.194 110.196 283.357 99.2195C288.547 85.5454 301.465 77.4903 302.631 62.7056C304.069 44.4766 296.76 22.9528 304.003 5.36789C306.131 0.215623 308.736 -2.0525 313.543 2.3064C321.262 9.29743 328.803 25.1276 333.452 34.7881C340.06 48.5182 347.312 65.8511 348.218 81.1492C351.102 129.629 321.719 168.29 285.121 196.095C270.663 207.081 268.467 210.64 248.224 230.024C234.237 243.418 226.909 252.438 225.276 261.399L225.285 261.389Z" fill="black" style="fill:black;fill-opacity:1;"/>
</svg>
