<?xml version="1.0" encoding="UTF-8"?>
<svg id="Layer_2" data-name="Layer 2" xmlns="http://www.w3.org/2000/svg" viewBox="0 0 57.14 6.67">
  <g id="Layer_1-2" data-name="Layer 1">
    <g>
      <path d="M3.99.39s0,.11,0,.22c-.03.03-.08.08-.11.11-.03.02-.04.03-.06.03-.08.02-.15,0-.23.03-.07.03-.15.04-.23.06-.04.02-.09.03-.14.03-.11.02-.2.03-.33.05-.13.02-.21.02-.33.03-.03.02-.06.04-.09.06-.02.04-.03.09-.03.14,0,.05,0,.09,0,.14,0,.12,0,.24-.04.35,0,.03-.02.05-.02.08s0,.05,0,.09v.02c0,.32,0,.51-.02.82,0,.14-.02.21-.03.35,0,.06-.02.09-.02.15-.02.33,0,.52-.02.86,0,.17-.03.27-.03.44,0,.08,0,.13,0,.21,0,.4,0,.64-.02,1.04,0,.08-.02.13-.03.21,0,.08-.02.13-.02.21,0,0,0,.03,0,.03,0,.06,0,.1,0,.16,0,.03,0,.08-.02.12-.04.09-.2.14-.35.14-.17,0-.34-.04-.4-.09-.04-.03-.08-.03-.1-.07-.09-.11-.13-.17-.16-.31,0,0,0-.02,0-.03,0-.06.02-.09.03-.16.04-.51.08-.99.08-1.45,0-.2.02-.47.02-.68,0-.51.04-.81.05-1.35,0-.06,0-.09,0-.15.02-.14.02-.31.03-.45v-.65s-.02-.03-.03-.05c-.03-.03-.05-.05-.08-.05,0,0-.02,0-.03,0-.06.03-.13.03-.2.03-.12,0-.24,0-.35.04-.06.02-.12.03-.18.03-.05,0-.1,0-.15,0-.02,0-.03-.02-.05-.03-.05-.07-.1-.14-.18-.19-.03-.02-.06-.05-.09-.08-.02-.03-.03-.05-.03-.09,0,0,0-.02,0-.03,0-.1.05-.2.14-.26.05-.04.1-.06.18-.09.14-.04.22-.05.38-.08.18-.03.28-.04.46-.05.03,0,.05,0,.09,0,.15-.02.24-.03.4-.05.02,0,.03,0,.06,0,.16-.02.27-.03.44-.05.11-.02.17-.04.29-.05.11-.02.18,0,.3-.02.12-.02.19-.03.32-.05.02,0,.03,0,.06,0,.15-.02.27-.04.39-.04h.08c.09.04.13.12.19.21.06.03.12.07.19.1,0,.03.02.04.02.09Z"/>
      <path d="M8.02,1.98v.03c-.02.28-.03.43-.05.71-.02.15-.03.23-.03.39,0,.06,0,.09,0,.15,0,.43,0,.73,0,1.09v1.28s0,.03-.02.05c-.08.09-.1.17-.21.21-.03,0-.04,0-.08,0-.16,0-.44-.11-.51-.19-.07-.07-.05-.1-.07-.21,0-.09-.03-.15-.03-.22,0-.03,0-.05,0-.08v-.27c0-.42,0-.83,0-1.25,0-.03,0-.04,0-.06-.02-.04-.05-.06-.09-.08-.03,0-.06.03-.09.03-.17,0-.33.04-.49.1-.02,0-.04.02-.06.02-.09,0-.2.02-.28.05-.02,0-.03,0-.05,0h-.04c-.25,0-.24.03-.32.26,0,.14,0,.27,0,.4,0,.05,0,.1-.02.15-.03.08-.03.16-.03.25v.1c0,.26,0,.52,0,.77,0,.09,0,.17-.03.26-.02.03-.02.08-.02.12,0,.09,0,.17,0,.27,0,.22-.18.35-.39.35-.03,0-.06,0-.09,0-.23-.03-.46-.24-.46-.39,0-.07,0-.14,0-.21,0-.1,0-.2.03-.29.02-.06.02-.11.03-.18v-.28c0-.06,0-.12,0-.19,0-.14.02-.21.03-.35,0-.08,0-.13.02-.21.02-.23.03-.35.05-.58,0-.15,0-.25,0-.37v-.2s-.02-.05-.02-.08c0,0,0,0,0-.02.03-.11.08-.15.11-.27.03-.14.03-.21.06-.35,0-.06,0-.09.02-.15,0-.07.02-.1.03-.17,0-.06.02-.09.03-.15.03-.15.04-.23.06-.38.03-.27.03-.41.07-.68,0-.1.03-.15.04-.26v-.11s0-.04,0-.07c.03-.15.05-.27.14-.39.04-.03.09-.06.16-.09.03,0,.07,0,.1.02.06.02.11.03.16.05.13.09.18.2.26.35.02.04.02.06.02.09,0,.04,0,.08,0,.13,0,.21-.03.34-.04.56,0,.09-.02.14-.02.23,0,.14,0,.22,0,.36,0,.07-.02.1-.03.17,0,.03-.02.05-.02.09-.03.16,0,.28-.06.41,0,.03,0,.05,0,.09v.03c0,.08.03.1.11.1h.13s.09,0,.14,0c.06,0,.09-.02.15-.03.15-.03.24-.06.4-.09.1-.02.16,0,.27-.02.03,0,.03-.02.05-.03.02,0,.03-.03.04-.03,0,0,0-.02.02-.03v-.03c0-.1,0-.2.03-.33,0-.04.02-.07.03-.11,0-.18,0-.29.02-.47v-.03c0-.14-.02-.25-.02-.37,0-.06,0-.12.02-.2.02-.12.06-.19.14-.28.04-.05.09-.09.15-.09h.03c.11,0,.21.03.31.09.15.11.2.27.24.46.02.08.02.14.02.21,0,.12-.02.23-.02.39v.06Z"/>
      <path d="M12.47,1.06s-.03.04-.05.05c-.06.03-.11,0-.18.04-.06.03-.08.09-.15.1-.16.05-.25.06-.35.06-.09,0-.19,0-.36,0-.09,0-.16.02-.27.03-.11,0-.17,0-.28.03-.03,0-.06.04-.08.06,0,.04-.03.05-.03.07v.29c0,.21,0,.42-.02.63,0,.08,0,.15-.03.23,0,.03,0,.06,0,.09.02.04.03.07.08.09.02,0,.03,0,.05,0,.15,0,.24,0,.38,0h.03c.15,0,.25,0,.4,0h.1c.09,0,.15,0,.24.03.03,0,.05.02.08.04.04.06.06.1.08.17,0,.04,0,.09,0,.12s0,.08,0,.12c0,.03-.03.04-.05.04-.11.04-.17.04-.28.07-.09.03-.15.06-.22.06-.09,0-.16.02-.23.04-.05,0-.09,0-.15,0h-.03c-.09,0-.16,0-.24,0-.05,0-.1,0-.16.02-.08.02-.12.07-.15.14,0,0-.02.03-.02.04-.02.11-.03.21-.06.34,0,.04,0,.08,0,.12,0,.08-.02.13-.03.21,0,.02-.02.03-.02.05,0,.12,0,.18-.03.3,0,.11-.02.17-.04.28-.03.18-.12.22-.12.41,0,.02,0,.03,0,.04.02.05.04.09.09.09.05,0,.09,0,.14,0,.21,0,.35-.03.58-.03h.15c.11.02.18.03.29.06.03.02.04.03.06.06.03.05.05.08.09.12.03.05.07.21.09.27,0,.04.02.08.02.12,0,.05-.02.09-.06.14-.1.09-.2.07-.33.08-.28.02-.52.04-.74.04-.14,0-.27,0-.42-.04-.15-.03-.35-.05-.58-.15-.05-.02-.09-.09-.13-.14-.06-.07-.09-.11-.11-.19-.04-.1-.06-.19-.06-.28,0-.12.03-.21.05-.35.02-.1.02-.15.04-.26.02-.1.04-.15.07-.26,0-.03,0-.03,0-.06.02-.14.03-.21.06-.35.03-.24.08-.4.08-.61,0-.04.02-.08.03-.12-.02-.02-.03-.05-.06-.06-.07-.04-.15-.04-.22-.09-.04-.03-.08-.04-.09-.08-.05-.1-.05-.17-.07-.28,0-.03,0-.04,0-.06,0-.02,0-.04,0-.06,0-.02,0-.03.03-.04.19-.04.34,0,.5-.08,0-.02.03-.03.03-.05.03-.11.05-.21.08-.34.03-.14.03-.21.05-.34v-.05h0c0-.22.02-.4.02-.57v-.11c-.03-.08-.09-.09-.15-.16-.04-.06-.06-.1-.09-.17-.03-.05-.04-.08-.07-.13,0-.02-.03-.03-.03-.04h0c.03-.09.04-.19.14-.21.17-.04.27-.05.4-.05s.26,0,.49,0c.12,0,.24,0,.35-.04.03,0,.05,0,.09,0h.4c.07,0,.13,0,.2,0,.2-.02.24-.03.31-.03h.09c.09,0,.18.04.22.09.08.08.11.12.15.21.04.08.06.12.06.21Z"/>
      <path d="M19.12,5.74c0,.05.03.09,0,.15-.08.12-.21.2-.33.26-.07.04-.13-.02-.21-.03-.07,0-.1,0-.17,0-.08,0-.13.02-.21,0-.15-.05-.21-.11-.34-.18-.08-.04-.13-.07-.21-.11-.09-.05-.15-.06-.23-.12-.25-.19-.38-.32-.6-.53-.03-.03-.03-.05-.04-.08-.05-.09-.09-.14-.14-.22-.07-.12-.1-.19-.15-.32-.04-.1-.07-.16-.1-.27-.03-.09-.03-.15-.04-.24-.02-.09-.02-.14-.03-.23,0-.06,0-.09-.02-.15,0-.05,0-.09,0-.14,0-.06,0-.09,0-.15.03-.12.03-.2.05-.32.02-.11.03-.18.06-.29.06-.26.09-.4.17-.65.05-.15.1-.23.18-.37.05-.09.09-.14.15-.22.09-.11.14-.19.23-.27.08-.07.16-.14.25-.21.07-.05.15-.1.21-.15.06-.03.12-.07.16-.09.03,0,.06,0,.09,0,.05,0,.09,0,.14.04.08.05.24.1.29.18,0,.05.02.09.02.15,0,.03,0,.08,0,.11-.03.07-.07.12-.12.17-.05.04-.1.09-.15.14-.2.16-.35.37-.47.6-.03.07-.06.15-.09.21-.14.39-.15.56-.23.91,0,.03-.02.05-.02.09-.02.08-.03.13-.03.21,0,.04-.02.07,0,.11.02.13.03.2.06.33.03.15.04.23.11.36.05.12.1.19.2.29.04.06.09.09.15.14.12.09.2.13.34.2.09.04.15.06.24.09.09.03.13.05.22.09.13.05.21.12.33.21.12.09.15.1.23.22.03.05.05.08.07.13Z"/>
      <path d="M23.34,3.24c0,.09,0,.17,0,.28,0,.15-.02.25-.05.4-.08.33-.08.46-.24.83,0,.04,0,.09-.02.15-.03.06-.06.12-.09.18-.02.03-.03.07-.06.1-.17.21-.28.43-.5.66-.1.11-.19.15-.33.22-.09.04-.14.03-.23.05-.08.02-.12.03-.2.05-.04,0-.07.02-.11.02-.07,0-.12.02-.18.02-.03,0-.07,0-.11-.03-.27-.11-.45-.24-.64-.38-.12-.09-.22-.2-.29-.33-.04-.08-.08-.16-.09-.25,0-.13-.07-.25-.08-.37-.03-.07-.04-.14-.04-.21,0-.12,0-.23,0-.35,0-.19,0-.38.02-.57,0-.09,0-.18.03-.27.03-.15.06-.29.09-.46.07-.29.12-.5.2-.74.06-.17.14-.33.22-.49.05-.09.11-.18.16-.27.03-.04.05-.07.08-.09.17-.21.34-.39.62-.55.03-.02.05-.03.08-.03.06,0,.11.03.17.03h.04c.11-.02.21-.03.29-.03h0c.14,0,.27.04.43.18.14.11.19.24.27.38.08.13.16.25.23.38.06.09.1.19.15.29.03.04.04.09.06.14.02.06.06.12.07.19.02.13.06.25.06.38,0,.17,0,.33,0,.5ZM22.49,3.01v-.06c0-.16-.02-.26-.06-.41-.04-.16-.09-.25-.15-.38-.05-.13-.11-.26-.2-.36-.09-.1-.15-.24-.27-.31-.03,0-.06.02-.08.04-.11.14-.21.28-.29.44-.11.2-.21.4-.25.64-.02.1-.03.19-.06.31-.03.14-.07.21-.1.34-.03.14-.03.23-.06.35,0,.22-.02.45-.02.68,0,.14,0,.28,0,.41,0,.04,0,.09.02.12.05.15.03.3.14.45.08.09.16.13.27.13h.04c.1,0,.13-.09.2-.16.1-.11.15-.21.23-.31.08-.1.14-.22.2-.33.05-.1.09-.2.14-.33.06-.14.1-.21.16-.34.02-.03.03-.05.03-.09.03-.13.04-.21.06-.34,0-.06.02-.09.02-.15,0-.13.03-.21.03-.33Z"/>
      <path d="M27.76,1.12s-.03.08-.05.11c-.07.09-.15.14-.27.18-.04,0-.1,0-.16,0-.33,0-.65,0-.97.02-.13,0-.26.03-.38.05-.02.02-.03.03-.03.05-.03.11-.05.23-.07.34-.02.11-.07.21-.07.33v.03c-.06.14-.04.29-.09.43-.02.03-.02.08-.02.11s0,.06,0,.09c.03,0,.05.03.08.03.05,0,.1,0,.15,0h.74c.28.07.32.07.55.32.02.09.03.14.03.18s0,.08-.03.16c-.04.05-.11.04-.16.07-.05.03-.1.05-.16.08-.2,0-.41,0-.62,0-.09,0-.17,0-.26.04-.03,0-.05.02-.08.02-.03,0-.07,0-.09-.02-.04,0-.08-.02-.11-.03-.03.03-.05.03-.09.06,0,.03-.02.05-.02.08,0,.47,0,.95.02,1.43,0,.04,0,.09.02.15,0,.03.02.08.02.11,0,.13,0,.26.06.38v.07s-.07.08-.1.14c-.03.04-.04.09-.09.12-.05.02-.1.04-.15.06-.08,0-.1-.07-.16-.09-.02-.02-.04-.02-.07-.02-.03,0-.08,0-.12,0-.04-.03-.11-.05-.16-.07-.08-.07-.13-.15-.14-.23,0-.09-.05-.17-.06-.26,0-.1,0-.2-.02-.3,0-.06,0-.12,0-.18,0-.03,0-.06,0-.09-.03-.18-.04-.36-.04-.54,0-.11,0-.22,0-.33,0-.08,0-.15,0-.22s0-.15,0-.23v-.11c0-.08,0-.15.03-.21,0-.03,0-.06,0-.09v-.09c0-.13,0-.25.02-.38,0-.06,0-.12.03-.18,0-.02.02-.04.02-.05v-.03c0-.16.07-.31.08-.47.05-.14.03-.29.09-.43,0-.15.07-.28.07-.44,0-.09.02-.18.02-.27,0-.05,0-.09-.02-.15.09-.1.17-.17.29-.22.11,0,.24,0,.37,0,.09,0,.17,0,.26-.03.04,0,.08,0,.12,0,.4,0,.81,0,1.21-.02.04,0,.09,0,.11,0,.11.05.21.09.28.18.03.04.09.07.14.09.02.09.03.16.04.25Z"/>
      <path d="M31.86,1.12s-.03.08-.05.11c-.07.09-.15.14-.27.18-.04,0-.1,0-.16,0-.33,0-.65,0-.97.02-.13,0-.26.03-.38.05-.02.02-.03.03-.03.05-.03.11-.05.23-.07.34-.02.11-.07.21-.07.33v.03c-.06.14-.04.29-.09.43-.02.03-.02.08-.02.11s0,.06,0,.09c.03,0,.05.03.08.03.05,0,.1,0,.15,0h.74c.28.07.32.07.55.32.02.09.03.14.03.18s0,.08-.03.16c-.04.05-.11.04-.16.07-.05.03-.1.05-.16.08-.2,0-.41,0-.62,0-.09,0-.17,0-.26.04-.03,0-.05.02-.08.02-.03,0-.07,0-.09-.02-.04,0-.08-.02-.11-.03-.03.03-.05.03-.09.06,0,.03-.02.05-.02.08,0,.47,0,.95.02,1.43,0,.04,0,.09.02.15,0,.03.02.08.02.11,0,.13,0,.26.06.38v.07s-.07.08-.1.14c-.03.04-.04.09-.09.12-.05.02-.1.04-.15.06-.08,0-.1-.07-.16-.09-.02-.02-.04-.02-.07-.02-.03,0-.08,0-.12,0-.04-.03-.11-.05-.16-.07-.08-.07-.13-.15-.14-.23,0-.09-.05-.17-.06-.26,0-.1,0-.2-.02-.3,0-.06,0-.12,0-.18,0-.03,0-.06,0-.09-.03-.18-.04-.36-.04-.54,0-.11,0-.22,0-.33,0-.08,0-.15,0-.22s0-.15,0-.23v-.11c0-.08,0-.15.03-.21,0-.03,0-.06,0-.09v-.09c0-.13,0-.25.02-.38,0-.06,0-.12.03-.18,0-.02.02-.04.02-.05v-.03c0-.16.07-.31.08-.47.05-.14.03-.29.09-.43,0-.15.07-.28.07-.44,0-.09.02-.18.02-.27,0-.05,0-.09-.02-.15.09-.1.17-.17.29-.22.11,0,.24,0,.37,0,.09,0,.17,0,.26-.03.04,0,.08,0,.12,0,.4,0,.81,0,1.21-.02.04,0,.09,0,.11,0,.11.05.21.09.28.18.03.04.09.07.14.09.02.09.03.16.04.25Z"/>
      <path d="M35.95,1.06s-.03.04-.05.05c-.06.03-.11,0-.18.04-.06.03-.08.09-.15.1-.16.05-.25.06-.35.06-.09,0-.19,0-.36,0-.09,0-.16.02-.27.03-.11,0-.17,0-.28.03-.03,0-.06.04-.08.06,0,.04-.03.05-.03.07v.29c0,.21,0,.42-.02.63,0,.08,0,.15-.04.23,0,.03,0,.06,0,.09.02.04.03.07.08.09.02,0,.03,0,.05,0,.15,0,.24,0,.38,0h.03c.15,0,.25,0,.4,0h.1c.09,0,.15,0,.24.03.03,0,.05.02.08.04.04.06.06.1.08.17,0,.04,0,.09,0,.12s0,.08,0,.12c0,.03-.03.04-.05.04-.11.04-.17.04-.28.07-.09.03-.15.06-.22.06-.09,0-.16.02-.23.04-.05,0-.09,0-.16,0h-.03c-.09,0-.16,0-.24,0-.05,0-.1,0-.16.02-.08.02-.12.07-.15.14,0,0-.02.03-.02.04-.02.11-.04.21-.06.34,0,.04,0,.08,0,.12,0,.08-.02.13-.03.21,0,.02-.02.03-.02.05,0,.12,0,.18-.03.3,0,.11-.02.17-.04.28-.03.18-.12.22-.12.41,0,.02,0,.03,0,.04.02.05.04.09.09.09.05,0,.09,0,.14,0,.21,0,.35-.03.58-.03h.15c.11.02.18.03.29.06.03.02.04.03.06.06.03.05.05.08.09.12.03.05.07.21.09.27,0,.04.02.08.02.12,0,.05-.02.09-.06.14-.1.09-.2.07-.33.08-.28.02-.51.04-.74.04-.14,0-.28,0-.42-.04-.15-.03-.35-.05-.58-.15-.05-.02-.09-.09-.13-.14-.06-.07-.09-.11-.11-.19-.04-.1-.06-.19-.06-.28,0-.12.03-.21.05-.35.02-.1.02-.15.04-.26.02-.1.04-.15.07-.26,0-.03,0-.03,0-.06.02-.14.03-.21.06-.35.03-.24.08-.4.08-.61,0-.04.02-.08.03-.12-.02-.02-.03-.05-.06-.06-.07-.04-.15-.04-.22-.09-.04-.03-.08-.04-.09-.08-.05-.1-.05-.17-.07-.28,0-.03,0-.04,0-.06,0-.02,0-.04,0-.06,0-.02,0-.03.04-.04.19-.04.34,0,.5-.08,0-.02.03-.03.03-.05.03-.11.05-.21.08-.34.03-.14.03-.21.05-.34v-.05h0c0-.22.02-.4.02-.57v-.11c-.04-.08-.09-.09-.15-.16-.04-.06-.06-.1-.09-.17-.03-.05-.04-.08-.07-.13,0-.02-.03-.03-.03-.04h0c.04-.09.04-.19.14-.21.17-.04.28-.05.4-.05s.26,0,.49,0c.12,0,.24,0,.35-.04.03,0,.05,0,.09,0h.4c.07,0,.13,0,.2,0,.2-.02.24-.03.31-.03h.09c.09,0,.18.04.22.09.08.08.11.12.15.21.04.08.06.12.06.21Z"/>
      <path d="M40.14,1.06s-.03.04-.05.05c-.06.03-.11,0-.18.04-.06.03-.08.09-.15.1-.16.05-.25.06-.35.06-.09,0-.19,0-.36,0-.09,0-.16.02-.27.03-.11,0-.17,0-.28.03-.03,0-.06.04-.08.06,0,.04-.03.05-.03.07v.29c0,.21,0,.42-.02.63,0,.08,0,.15-.04.23,0,.03,0,.06,0,.09.02.04.03.07.08.09.02,0,.03,0,.05,0,.15,0,.24,0,.38,0h.03c.15,0,.25,0,.4,0h.1c.09,0,.15,0,.24.03.03,0,.05.02.08.04.04.06.06.1.08.17,0,.04,0,.09,0,.12s0,.08,0,.12c0,.03-.03.04-.05.04-.11.04-.17.04-.28.07-.09.03-.15.06-.22.06-.09,0-.16.02-.23.04-.05,0-.09,0-.16,0h-.03c-.09,0-.16,0-.24,0-.05,0-.1,0-.16.02-.08.02-.12.07-.15.14,0,0-.02.03-.02.04-.02.11-.04.21-.06.34,0,.04,0,.08,0,.12,0,.08-.02.13-.03.21,0,.02-.02.03-.02.05,0,.12,0,.18-.03.3,0,.11-.02.17-.04.28-.03.18-.12.22-.12.41,0,.02,0,.03,0,.04.02.05.04.09.09.09.05,0,.09,0,.14,0,.21,0,.35-.03.58-.03h.15c.11.02.18.03.29.06.03.02.04.03.06.06.03.05.05.08.09.12.03.05.07.21.09.27,0,.04.02.08.02.12,0,.05-.02.09-.06.14-.1.09-.2.07-.33.08-.28.02-.51.04-.74.04-.14,0-.28,0-.42-.04-.15-.03-.35-.05-.58-.15-.05-.02-.09-.09-.13-.14-.06-.07-.09-.11-.11-.19-.04-.1-.06-.19-.06-.28,0-.12.03-.21.05-.35.02-.1.02-.15.04-.26.02-.1.04-.15.07-.26,0-.03,0-.03,0-.06.02-.14.03-.21.06-.35.03-.24.08-.4.08-.61,0-.04.02-.08.03-.12-.02-.02-.03-.05-.06-.06-.07-.04-.15-.04-.22-.09-.04-.03-.08-.04-.09-.08-.05-.1-.05-.17-.07-.28,0-.03,0-.04,0-.06,0-.02,0-.04,0-.06,0-.02,0-.03.04-.04.19-.04.34,0,.5-.08,0-.02.03-.03.03-.05.03-.11.05-.21.08-.34.03-.14.03-.21.05-.34v-.05h0c0-.22.02-.4.02-.57v-.11c-.04-.08-.09-.09-.15-.16-.04-.06-.06-.1-.09-.17-.03-.05-.04-.08-.07-.13,0-.02-.03-.03-.03-.04h0c.04-.09.04-.19.14-.21.17-.04.28-.05.4-.05s.26,0,.49,0c.12,0,.24,0,.35-.04.03,0,.05,0,.09,0h.4c.07,0,.13,0,.2,0,.2-.02.24-.03.31-.03h.09c.09,0,.18.04.22.09.08.08.11.12.15.21.04.08.06.12.06.21Z"/>
      <path d="M47.26,1.12s-.03.08-.05.11c-.07.09-.15.14-.27.18-.04,0-.1,0-.16,0-.33,0-.65,0-.97.02-.13,0-.26.03-.38.05-.02.02-.03.03-.03.05-.03.11-.05.23-.07.34-.02.11-.07.21-.07.33v.03c-.06.14-.04.29-.09.43-.02.03-.02.08-.02.11s0,.06,0,.09c.03,0,.05.03.08.03.05,0,.1,0,.15,0h.74c.28.07.32.07.55.32.02.09.03.14.03.18s0,.08-.03.16c-.04.05-.11.04-.16.07-.05.03-.1.05-.16.08-.2,0-.41,0-.62,0-.09,0-.17,0-.26.04-.03,0-.05.02-.08.02-.03,0-.07,0-.09-.02-.04,0-.08-.02-.11-.03-.03.03-.05.03-.09.06,0,.03-.02.05-.02.08,0,.47,0,.95.02,1.43,0,.04,0,.09.02.15,0,.03.02.08.02.11,0,.13,0,.26.06.38v.07s-.07.08-.1.14c-.03.04-.04.09-.09.12-.05.02-.1.04-.15.06-.08,0-.1-.07-.16-.09-.02-.02-.04-.02-.07-.02-.03,0-.08,0-.12,0-.04-.03-.11-.05-.16-.07-.08-.07-.13-.15-.14-.23,0-.09-.05-.17-.06-.26,0-.1,0-.2-.02-.3,0-.06,0-.12,0-.18,0-.03,0-.06,0-.09-.03-.18-.04-.36-.04-.54,0-.11,0-.22,0-.33,0-.08,0-.15,0-.22s0-.15,0-.23v-.11c0-.08,0-.15.03-.21,0-.03,0-.06,0-.09v-.09c0-.13,0-.25.02-.38,0-.06,0-.12.03-.18,0-.02.02-.04.02-.05v-.03c0-.16.07-.31.08-.47.05-.14.03-.29.09-.43,0-.15.07-.28.07-.44,0-.09.02-.18.02-.27,0-.05,0-.09-.02-.15.09-.1.17-.17.29-.22.11,0,.24,0,.37,0,.09,0,.17,0,.26-.03.04,0,.08,0,.12,0,.4,0,.81,0,1.21-.02.04,0,.09,0,.11,0,.11.05.21.09.28.18.03.04.09.07.14.09.02.09.03.16.04.25Z"/>
      <path d="M49.1,2.94c.05.06.06.11.06.19v.03c0,.1,0,.16-.04.27-.04.17-.11.26-.16.43-.04.11-.04.18-.06.29,0,.03,0,.05-.02.09-.02.16-.03.25-.04.41,0,.14-.03.21-.04.35,0,.06,0,.09,0,.15v.02c0,.06,0,.11,0,.16,0,.03,0,.05,0,.09,0,.08-.04.12-.09.17-.05.06-.09.11-.17.11h0c-.08,0-.09-.09-.16-.13-.09-.05-.17-.03-.27-.09-.09-.05-.12-.1-.18-.18-.03-.05-.06-.09-.07-.15,0-.04,0-.08,0-.1,0-.07,0-.13,0-.21v-.06c.03-.17.03-.27.06-.44.02-.09.03-.14.04-.23.02-.08,0-.13.02-.21.05-.25.1-.43.16-.7,0-.03,0-.04,0-.06.06-.11.07-.19.15-.28.08-.08.14-.12.24-.15.08-.02.14-.03.2-.03.04,0,.09,0,.13.03.13.05.17.13.25.24ZM49.47,1.73s0,.08-.02.12c-.03.09-.03.21-.13.22h-.06c-.16,0-.27-.07-.43-.16-.11-.06-.15-.12-.21-.22-.02-.03-.03-.04-.03-.07,0-.02,0-.04.03-.07.03-.09.08-.15.15-.22,0-.03.03-.03.06-.03.07,0,.12-.03.18-.03.03,0,.06,0,.09.03.16.09.23.17.33.32.02.04.03.07.03.1Z"/>
      <path d="M53.18,1.73c-.03.13-.05.19-.08.31-.03.12-.04.18-.07.29,0,.03,0,.06-.02.09-.03.14-.04.21-.08.34,0,.05-.03.07-.03.11-.04.15-.06.25-.1.4-.05.17-.08.27-.12.43-.05.17-.08.28-.12.42,0,.04-.02.05-.03.09,0,.06,0,.09-.02.15s-.03.07-.03.11c-.02.06-.03.09-.04.15,0,.05-.02.08-.03.12-.02.06-.03.09-.04.14-.03.11-.05.18-.08.28-.03.11-.03.18-.07.28-.09.26-.1.43-.28.63-.03.03-.06.04-.09.04-.05,0-.11-.03-.17-.06-.16-.08-.25-.15-.37-.28-.08-.09-.09-.16-.14-.27-.07-.14-.1-.22-.15-.38-.1-.27-.28-.43-.36-.71-.02-.03-.03-.04-.03-.08-.03-.12-.04-.19-.06-.32-.02-.09-.02-.15-.03-.24-.02-.08-.03-.11-.03-.2-.02-.09,0-.15,0-.24-.02-.14-.03-.21-.03-.35,0-.04,0-.06,0-.11,0-.38-.02-.64-.02-.95,0-.13,0-.27,0-.42,0-.22,0-.38.07-.58.04-.04.09-.1.14-.16.03-.03.18-.04.23-.04.02,0,.04,0,.07,0,.04.03.08.07.11.1,0,.02,0,.03.02.03.02.11.05.21.06.33,0,.14.03.25.05.4,0,.06.02.09.02.15v.08c0,.08,0,.15,0,.22,0,.03,0,.08,0,.11,0,.13.03.21.04.33,0,.05,0,.07,0,.11,0,.12,0,.19,0,.3,0,.17.02.28.04.44.03.2.03.31.09.5.06.27.09.46.2.67.03,0,.04,0,.07,0,.03-.07.07-.15.08-.21,0-.1.05-.2.07-.29.03-.09.05-.16.06-.26,0-.08.03-.13.06-.22.04-.18.06-.28.11-.46.04-.17.07-.27.12-.46.03-.1.04-.17.07-.28.03-.1.03-.17.06-.28.03-.09.04-.15.07-.26.03-.11.03-.17.06-.29.02-.09.03-.17.04-.26.03-.1.05-.21.09-.32.02-.04.03-.09.03-.14.03-.15.1-.27.26-.34.03,0,.05-.03.07-.03h.07c.16,0,.26.11.3.27.03.08.04.16.04.26s-.02.2-.04.28c-.04.18-.08.34-.12.55Z"/>
      <path d="M57.14,1.06s-.03.04-.05.05c-.06.03-.11,0-.18.04-.06.03-.08.09-.15.1-.16.05-.25.06-.35.06-.09,0-.19,0-.36,0-.09,0-.16.02-.27.03-.11,0-.17,0-.28.03-.03,0-.06.04-.08.06,0,.04-.03.05-.03.07v.29c0,.21,0,.42-.02.63,0,.08,0,.15-.04.23,0,.03,0,.06,0,.09.02.04.03.07.08.09.02,0,.03,0,.05,0,.15,0,.24,0,.38,0h.03c.15,0,.25,0,.4,0h.1c.09,0,.15,0,.24.03.03,0,.05.02.08.04.04.06.06.1.08.17,0,.04,0,.09,0,.12s0,.08,0,.12c0,.03-.03.04-.05.04-.11.04-.17.04-.28.07-.09.03-.15.06-.22.06-.09,0-.16.02-.23.04-.05,0-.09,0-.16,0h-.03c-.09,0-.16,0-.24,0-.05,0-.1,0-.16.02-.08.02-.12.07-.15.14,0,0-.02.03-.02.04-.02.11-.04.21-.06.34,0,.04,0,.08,0,.12,0,.08-.02.13-.03.21,0,.02-.02.03-.02.05,0,.12,0,.18-.03.3,0,.11-.02.17-.04.28-.03.18-.12.22-.12.41,0,.02,0,.03,0,.04.02.05.04.09.09.09.05,0,.09,0,.14,0,.21,0,.35-.03.58-.03h.15c.11.02.18.03.29.06.03.02.04.03.06.06.03.05.05.08.09.12.03.05.07.21.09.27,0,.04.02.08.02.12,0,.05-.02.09-.06.14-.1.09-.2.07-.33.08-.28.02-.51.04-.74.04-.14,0-.28,0-.42-.04-.15-.03-.35-.05-.58-.15-.05-.02-.09-.09-.13-.14-.06-.07-.09-.11-.11-.19-.04-.1-.06-.19-.06-.28,0-.12.03-.21.05-.35.02-.1.02-.15.04-.26.02-.1.04-.15.07-.26,0-.03,0-.03,0-.06.02-.14.03-.21.06-.35.03-.24.08-.4.08-.61,0-.04.02-.08.03-.12-.02-.02-.03-.05-.06-.06-.07-.04-.15-.04-.22-.09-.04-.03-.08-.04-.09-.08-.05-.1-.05-.17-.07-.28,0-.03,0-.04,0-.06,0-.02,0-.04,0-.06,0-.02,0-.03.04-.04.19-.04.34,0,.5-.08,0-.02.03-.03.03-.05.03-.11.05-.21.08-.34.03-.14.03-.21.05-.34v-.05h0c0-.22.02-.4.02-.57v-.11c-.04-.08-.09-.09-.15-.16-.04-.06-.06-.1-.09-.17-.03-.05-.04-.08-.07-.13,0-.02-.03-.03-.03-.04h0c.04-.09.04-.19.14-.21.17-.04.28-.05.4-.05s.26,0,.49,0c.12,0,.24,0,.35-.04.03,0,.05,0,.09,0h.4c.07,0,.13,0,.2,0,.2-.02.24-.03.31-.03h.09c.09,0,.18.04.22.09.08.08.11.12.15.21.04.08.06.12.06.21Z"/>
    </g>
  </g>
</svg>