<svg xmlns="http://www.w3.org/2000/svg" viewBox="0 0 373.3 591.26">
  <path fill="#0A0A0A" d="M255.66,274.35l2.81-2.64c13.18-23.02,53.09-47.95,76.96-26.48,13.54,12.18,14.13,33.08,7.4,49.02-5.51,13.05-25.42,27.24-38.85,30.79-17.86,4.72-36.44,6.06-47.73-11-.97-1.47-.96-3.75-2.94-4.85-7.58,12.41-8.81,27.33-12.73,41.05.4.41,6.24-4.56,7.11-5.1,14.78-9.18,42.48-9.18,57.49-.51,6.8,3.93,18.46,15.75,21.93,22.77,11.63,23.53,8,54.31-22.41,58.16-31.48,3.99-53.95-18.76-62.69-46.84-.88-2.83-2.1-10.43-3.23-12.36-.38-.65-.63-.56-1.06,0-2.65,10.87-6.45,21.26-7.52,32.5-3.65,38.41,1,80.6,10.54,117.85,5.2,20.3,13.98,42.67,16.86,63.19.29,2.07,1.96,11.57-1.15,11.34-5.45-2.57-9.37-8.87-12.31-14-20.34-35.45-26.42-93.78-27.47-134.19l-.46-46.85c-3.61-2.83-8.48-2.58-12.63-4-12.22-4.19-11.9-16.52-28.13-15.39-11.28.79-23.29,5.58-34.87,5.68-16.02.14-28.81-8.27-35.89-22.36-5.03-9.99-1.98-18.48-15.03-22.92-12.44-4.23-21.23,10.24-32.17,5.16-11.87-5.52-4.03-21.81-18.89-27.88-8.77-3.58-31.9-6.56-36.95-14.5-8-12.6,15.48-15.78,22.62-19.31,9.29-4.6,11.63-16.15,20.26-22.36,15.32-11.04,28.74,8.69,43.63,10.25,16.27,1.7,32.21-6.61,48.87-.03,12.94,5.11,19.02,11.2,29.02,19.83,4.2,3.63,8.9,5.92,13.19,9.16,17.28,13.03,27.44,42.25,37.69,61.06.32.58.58,1.41,1.32,1.54-.17-6.83.23-13.72.03-20.56-.43-14.14-2.7-47.91-14.83-56.9-8.31-6.16-23.61-4.5-30.89-11.21-3.63-3.35-2.35-8.87-3.91-10.65-15.22-9.3-30.72-18.11-45.13-28.67-18-13.19-23.25-21.67-30.36-42.92-4.02-12.01-5.54-25.47-10.27-37.03-4.24-10.36-14.95-18.69-11.41-31.19,2.12-7.48,7.02-9.4,14.53-8.84,9.18.69,19.23,11.96,23.55,19.59,1.94,3.43,2.97,7.06,5.18,10.41,9.66,14.68,22.61,13.16,37.75,17.34,28.51,7.87,30.87,27.22,41.78,50.74,5.38,11.59,11.78,20.98,14.49,33.85,2.1,9.98,2.08,21.15,4.44,30.91,2.39,9.87,9.63,5.87,15.41,1.65,5.63-4.11,11.8-11.46,15.2-17.54.76-1.36,4.13-7.56,3.03-8.67-10.84.82-18.01,4.95-28.03-1.85-18.83-12.78-22.1-53.31-16.11-73.23,7.31-24.33,36.77-41.55,54.95-16.57,10.66,14.64,13.33,34.99,12.05,52.67.63.87,7.61-14.55,8.03-15.61,2.56-6.42,4.3-12.56,4.95-19.48.7-7.51-.99-25.75,7.5-29.41,2.22-.96,5.82.31,6.78-1.53,3.26-12.29,2.17-27.35,6.63-39.11,5.56-14.65,19.4-23.28,20.65-39.12,1.54-19.53-6.29-42.59,1.47-61.43,2.28-5.52,5.07-7.95,10.22-3.28,8.27,7.49,16.35,24.45,21.33,34.8,7.08,14.71,14.85,33.28,15.82,49.67,3.09,51.94-28.39,93.36-67.6,123.15-15.49,11.77-29.64,18.24-39.53,36.35-4.66,8.54-8.55,18.3-10.3,27.9ZM227.6,361.69c.95-.16.87-1.07,1.1-1.75,1.81-5.32,2.05-12,3.2-17.59,5.31-25.73,15.76-46.3,17.4-73.1.06-.94.3-1.51-.66-2.17-4.02,7.54-9.33,14.93-15.84,20.54-1.34,1.16-8.49,5.82-8.63,6.73l3.45,40.55-.02,26.79Z"/>
</svg>
