<svg width="267" height="422" viewBox="0 0 267 422" fill="none" xmlns="http://www.w3.org/2000/svg">
<path d="M172.19 199.785L174.195 197.902C183.597 181.479 212.069 163.694 229.098 179.011C238.757 187.7 239.178 202.61 234.377 213.982C230.446 223.292 216.242 233.415 206.661 235.947C193.92 239.315 180.665 240.271 172.611 228.1C171.919 227.051 171.926 225.425 170.513 224.64C165.106 233.493 161.811 246.21 167.547 249.848C167.832 250.141 171.998 246.595 172.619 246.21C183.163 239.661 202.924 239.661 213.633 245.846C218.484 248.65 226.802 257.082 229.277 262.09C237.574 278.877 234.985 300.835 213.29 303.582C190.832 306.428 174.802 290.198 168.567 270.166C167.939 268.147 167.069 262.725 166.263 261.348C165.992 260.885 165.813 260.949 165.507 261.348C163.616 269.103 164.982 276.515 164.218 284.534C161.615 311.936 164.932 342.034 171.738 368.608C175.447 383.09 181.711 399.049 183.766 413.688C183.973 415.165 185.164 421.942 182.945 421.778C179.057 419.945 176.261 415.45 174.163 411.791C159.653 386.5 155.315 344.888 154.566 316.059L154.238 282.636C151.663 280.617 148.188 280.796 145.228 279.783C136.51 276.794 136.738 267.997 125.16 268.803C117.113 269.367 108.545 272.784 100.283 272.856C88.8547 272.955 79.7303 266.956 74.6794 256.904C71.091 249.777 73.2668 243.72 63.9569 240.553C55.0822 237.535 48.8114 247.858 41.0068 244.234C32.5387 240.296 38.1318 228.675 27.5306 224.344C21.2741 221.79 4.77312 219.664 1.17044 214C-4.53677 205.011 12.2139 202.742 17.3076 200.224C23.9351 196.942 25.6045 188.703 31.7611 184.272C42.6904 176.396 52.2643 190.472 62.8868 191.585C74.4939 192.798 85.8655 186.869 97.7508 191.563C106.982 195.209 111.32 199.553 118.454 205.71C121.45 208.3 124.803 209.934 127.863 212.245C140.191 221.541 147.439 242.386 154.752 255.805C154.98 256.219 155.165 256.811 155.693 256.904C155.572 252.031 155.857 247.116 155.715 242.236C155.408 232.149 153.788 208.057 145.135 201.644C139.207 197.249 128.292 198.433 123.098 193.647C120.508 191.257 121.421 187.319 120.309 186.049C109.451 179.414 98.3928 173.129 88.1127 165.596C75.2715 156.186 71.5261 150.136 66.4539 134.976C63.586 126.408 62.5016 116.806 59.1272 108.559C56.1024 101.168 48.4619 95.2256 50.9873 86.3081C52.4997 80.9718 55.9954 79.6021 61.353 80.0016C67.9021 80.4939 75.0717 88.5339 78.1536 93.9772C79.5376 96.4241 80.2724 99.0138 81.8491 101.404C88.7405 111.876 97.9791 110.792 108.78 113.774C129.119 119.389 130.803 133.193 138.586 149.972C142.424 158.24 146.99 164.939 148.923 174.121C150.421 181.24 150.407 189.209 152.091 196.172C153.796 203.213 158.961 200.36 163.084 197.349C167.101 194.417 171.502 189.174 173.928 184.836C174.47 183.866 176.874 179.443 176.089 178.651C168.356 179.236 163.241 182.182 156.093 177.331C142.659 168.214 140.327 139.3 144.6 125.089C149.815 107.732 170.832 95.4468 183.801 113.268C191.406 123.712 193.311 138.229 192.398 150.842C192.847 151.463 197.827 140.462 198.126 139.706C199.953 135.126 201.194 130.746 201.658 125.809C202.157 120.451 200.951 107.439 207.008 104.828C208.592 104.143 211.16 105.049 211.845 103.736C214.171 94.9688 213.393 84.2249 216.575 75.8353C220.542 65.384 230.415 59.2273 231.307 47.9271C232.405 33.9943 226.819 17.5433 232.355 4.10278C233.982 0.164805 235.972 -1.56876 239.646 1.76282C245.546 7.10621 251.311 19.2055 254.863 26.5892C259.914 37.0834 265.457 50.3312 266.149 62.0239C268.354 99.078 245.896 128.627 217.923 149.879C206.873 158.276 205.194 160.996 189.723 175.811C179.032 186.049 173.431 192.943 172.183 199.792L172.19 199.785Z" fill="#0D7C47"/>
</svg>
